grf
version=1
nRows=67
nColumns=19
inDegrees=yes
endheader
time	ground_force_1_vx	ground_force_1_vy	ground_force_1_vz	ground_force_1_px	ground_force_1_py	ground_force_1_pz	ground_moment_1_mx	ground_moment_1_my	ground_moment_1_mz	ground_force_2_vx	ground_force_2_vy	ground_force_2_vz	ground_force_2_px	ground_force_2_py	ground_force_2_pz	ground_moment_2_mx	ground_moment_2_my	ground_moment_2_mz
0.452000	2.852368	511.556091	-3.705175	0.880139	0.000000	0.191812	0.000000	-0.783697	-0.000000	0.000000	0.000000	0.000000	0.000000	0.000000	0.000000	0.000000	0.000000	0.000000
0.453000	3.473948	500.526672	-6.234922	0.876479	0.000000	0.191453	0.000000	-0.451468	-0.000000	0.000000	0.000000	0.000000	0.000000	0.000000	0.000000	0.000000	0.000000	0.000000
0.454000	2.391196	503.014496	-4.006335	0.879066	0.000000	0.193286	0.000000	-0.652337	-0.000000	0.000000	0.000000	0.000000	0.000000	0.000000	0.000000	0.000000	0.000000	0.000000
0.455000	2.190686	504.424316	-3.885872	0.878810	0.000000	0.192547	0.000000	-0.650466	-0.000000	0.000000	0.000000	0.000000	0.000000	0.000000	0.000000	0.000000	0.000000	0.000000
0.456000	2.070380	505.916992	-3.303628	0.878730	0.000000	0.192190	0.000000	-0.753429	-0.000000	0.000000	0.000000	0.000000	0.000000	0.000000	0.000000	0.000000	0.000000	0.000000
0.457000	1.348545	506.912140	-3.343783	0.877920	0.000000	0.192555	0.000000	-0.808929	-0.000000	0.000000	0.000000	0.000000	0.000000	0.000000	0.000000	0.000000	0.000000	0.000000
0.458000	0.305895	507.658478	-2.500534	0.878346	0.000000	0.191762	0.000000	-0.839384	-0.000000	0.000000	0.000000	0.000000	0.000000	0.000000	0.000000	0.000000	0.000000	0.000000
0.459000	-0.275583	511.224426	-3.183164	0.879125	0.000000	0.192010	0.000000	-0.814896	-0.000000	0.000000	0.000000	0.000000	0.000000	0.000000	0.000000	0.000000	0.000000	0.000000
0.460000	-0.596399	513.297607	-3.243396	0.877596	0.000000	0.191862	0.000000	-0.820193	-0.000000	0.000000	0.000000	0.000000	0.000000	0.000000	0.000000	0.000000	0.000000	0.000000
0.461000	-1.197928	511.141479	-1.998600	0.877122	0.000000	0.191280	0.000000	-0.775666	-0.000000	0.000000	0.000000	0.000000	0.000000	0.000000	0.000000	0.000000	0.000000	0.000000
0.462000	-1.779406	511.473175	-1.898213	0.876759	0.000000	0.191490	0.000000	-0.796456	-0.000000	0.000000	0.000000	0.000000	0.000000	0.000000	0.000000	0.000000	0.000000	0.000000
0.463000	-1.919763	509.068268	-2.380070	0.875691	0.000000	0.191190	0.000000	-0.798142	-0.000000	0.000000	0.000000	0.000000	0.000000	0.000000	0.000000	0.000000	0.000000	0.000000
0.464000	-2.902261	514.375732	-1.416357	0.876949	0.000000	0.191795	0.000000	-0.871186	-0.000000	0.000000	0.000000	0.000000	0.000000	0.000000	0.000000	0.000000	0.000000	0.000000
0.465000	-2.681700	513.712280	-1.717517	0.876294	0.000000	0.190904	0.000000	-0.874962	-0.000000	0.000000	0.000000	0.000000	0.000000	0.000000	0.000000	0.000000	0.000000	0.000000
0.466000	-3.583993	518.853760	-1.837981	0.877534	0.000000	0.191405	0.000000	-0.826986	-0.000000	0.000000	0.000000	0.000000	0.000000	0.000000	0.000000	0.000000	0.000000	0.000000
0.467000	-3.463688	517.278137	-2.058832	0.875264	0.000000	0.191109	0.000000	-0.822952	-0.000000	0.000000	0.000000	0.000000	0.000000	0.000000	0.000000	0.000000	0.000000	0.000000
0.468000	-3.604044	516.614746	-2.058832	0.874834	0.000000	0.190327	0.000000	-0.886381	-0.000000	0.000000	0.000000	0.000000	0.000000	0.000000	0.000000	0.000000	0.000000	0.000000
0.469000	-4.726899	515.868408	-1.978523	0.875628	0.000000	0.190455	0.000000	-0.829574	-0.000000	0.000000	0.000000	0.000000	0.000000	0.000000	0.000000	0.000000	0.000000	0.000000
0.470000	-4.305829	517.609863	-1.255738	0.875908	0.000000	0.190419	0.000000	-0.794747	-0.000000	0.000000	0.000000	0.000000	0.000000	0.000000	0.000000	0.000000	0.000000	0.000000
0.471000	-4.787052	520.429443	-1.416357	0.874019	0.000000	0.190762	0.000000	-0.779887	-0.000000	0.000000	0.000000	0.000000	0.000000	0.000000	0.000000	0.000000	0.000000	0.000000
0.472000	-4.987562	520.014771	-0.994733	0.874523	0.000000	0.190008	0.000000	-0.886155	-0.000000	0.000000	0.000000	0.000000	0.000000	0.000000	0.000000	0.000000	0.000000	0.000000
0.473000	-5.789601	523.414795	-1.356125	0.874458	0.000000	0.190592	0.000000	-0.858962	-0.000000	0.000000	0.000000	0.000000	0.000000	0.000000	0.000000	0.000000	0.000000	0.000000
0.474000	-5.689345	522.751404	-1.737595	0.874117	0.000000	0.190660	0.000000	-0.847344	-0.000000	0.000000	0.000000	0.000000	0.000000	0.000000	0.000000	0.000000	0.000000	0.000000
0.475000	-5.950008	529.302734	-1.556899	0.874508	0.000000	0.190058	0.000000	-0.901939	-0.000000	0.000000	0.000000	0.000000	0.000000	0.000000	0.000000	0.000000	0.000000	0.000000
0.476000	-6.792149	530.214966	-1.235661	0.873883	0.000000	0.190048	0.000000	-0.919426	-0.000000	0.000000	0.000000	0.000000	0.000000	0.000000	0.000000	0.000000	0.000000	0.000000
0.477000	-6.250773	530.546631	-1.757672	0.872134	0.000000	0.189707	0.000000	-0.858552	-0.000000	0.000000	0.000000	0.000000	0.000000	0.000000	0.000000	0.000000	0.000000	0.000000
0.478000	-6.832251	535.439392	-1.757672	0.872431	0.000000	0.190155	0.000000	-0.859566	-0.000000	0.000000	0.000000	0.000000	0.000000	0.000000	0.000000	0.000000	0.000000	0.000000
0.479000	-7.413730	533.697937	-0.793959	0.873315	0.000000	0.189779	0.000000	-0.905819	-0.000000	0.000000	0.000000	0.000000	0.000000	0.000000	0.000000	0.000000	0.000000	0.000000
0.480000	-7.694443	537.346802	-0.874269	0.873101	0.000000	0.189804	0.000000	-0.875633	-0.000000	0.000000	0.000000	0.000000	0.000000	0.000000	0.000000	0.000000	0.000000	0.000000
0.481000	-8.175666	536.351624	-0.553031	0.872143	0.000000	0.189405	0.000000	-0.952973	-0.000000	0.000000	0.000000	0.000000	0.000000	0.000000	0.000000	0.000000	0.000000	0.000000
0.482000	-8.115513	539.088257	-0.834114	0.872382	0.000000	0.189342	0.000000	-0.958840	-0.000000	0.000000	0.000000	0.000000	0.000000	0.000000	0.000000	0.000000	0.000000	0.000000
0.483000	-9.118061	536.434570	-1.958446	0.874137	0.000000	0.188968	0.000000	-1.068875	-0.000000	0.000000	0.000000	0.000000	0.000000	0.000000	0.000000	0.000000	0.000000	0.000000
0.484000	-7.915004	529.717407	-2.841849	0.871880	0.000000	0.191286	0.000000	-1.184772	-0.000000	0.000000	0.000000	0.000000	0.000000	0.000000	0.000000	0.000000	0.000000	0.000000
0.485000	-7.854850	543.566406	-1.898213	0.871351	0.000000	0.188935	0.000000	-0.987364	-0.000000	0.000000	0.000000	0.000000	0.000000	0.000000	0.000000	0.000000	0.000000	0.000000
0.486000	-8.175666	542.985840	-0.954578	0.872545	0.000000	0.187887	0.000000	-1.039703	-0.000000	0.000000	0.000000	0.000000	0.000000	0.000000	0.000000	0.000000	0.000000	0.000000
0.487000	-9.859948	543.815186	-1.556899	0.868842	0.000000	0.188841	0.000000	-0.765059	-0.000000	0.000000	0.000000	0.000000	0.000000	0.000000	0.000000	0.000000	0.000000	0.000000
0.488000	-10.481527	550.034790	-0.332180	0.872609	0.000000	0.188330	0.000000	-1.137825	-0.000000	0.000000	0.000000	0.000000	0.000000	0.000000	0.000000	0.000000	0.000000	0.000000
0.489000	-10.401323	543.732239	-0.010942	0.872543	0.000000	0.187637	0.000000	-1.099994	-0.000000	0.000000	0.000000	0.000000	0.000000	0.000000	0.000000	0.000000	0.000000	0.000000
0.490000	-10.260967	556.586121	-1.637208	0.871252	0.000000	0.188769	0.000000	-0.946745	-0.000000	0.000000	0.000000	0.000000	0.000000	0.000000	0.000000	0.000000	0.000000	0.000000
0.491000	-10.321120	554.015381	-1.918291	0.870904	0.000000	0.188495	0.000000	-1.025836	-0.000000	0.000000	0.000000	0.000000	0.000000	0.000000	0.000000	0.000000	0.000000	0.000000
0.492000	-11.303617	555.839783	-2.139142	0.870319	0.000000	0.188049	0.000000	-0.991120	-0.000000	0.000000	0.000000	0.000000	0.000000	0.000000	0.000000	0.000000	0.000000	0.000000
0.493000	-11.083057	556.917847	-2.400147	0.869949	0.000000	0.188425	0.000000	-0.948444	-0.000000	0.000000	0.000000	0.000000	0.000000	0.000000	0.000000	0.000000	0.000000	0.000000
0.494000	-11.865045	560.981323	-2.299761	0.869302	0.000000	0.188819	0.000000	-1.020116	-0.000000	0.000000	0.000000	0.000000	0.000000	0.000000	0.000000	0.000000	0.000000	0.000000
0.495000	-12.526727	563.469177	-2.520611	0.869618	0.000000	0.188144	0.000000	-1.010791	-0.000000	0.000000	0.000000	0.000000	0.000000	0.000000	0.000000	0.000000	0.000000	0.000000
0.496000	-13.489174	569.191223	-2.018677	0.869873	0.000000	0.188497	0.000000	-1.029158	-0.000000	0.000000	0.000000	0.000000	0.000000	0.000000	0.000000	0.000000	0.000000	0.000000
0.497000	-13.188410	569.937561	-3.143009	0.869327	0.000000	0.188576	0.000000	-0.972216	-0.000000	0.000000	0.000000	0.000000	0.000000	0.000000	0.000000	0.000000	0.000000	0.000000
0.498000	-13.990448	571.761963	-2.480457	0.868720	0.000000	0.187971	0.000000	-1.036806	-0.000000	0.000000	0.000000	0.000000	0.000000	0.000000	0.000000	0.000000	0.000000	0.000000
0.499000	-14.672181	576.903503	-2.861926	0.869634	0.000000	0.188185	0.000000	-1.002813	-0.000000	0.000000	0.000000	0.000000	0.000000	0.000000	0.000000	0.000000	0.000000	0.000000
0.500000	-15.614576	578.313293	-2.440302	0.869889	0.000000	0.188024	0.000000	-1.052397	-0.000000	0.000000	0.000000	0.000000	0.000000	0.000000	0.000000	0.000000	0.000000	0.000000
0.501000	-16.276258	582.293823	-2.460380	0.869358	0.000000	0.188207	0.000000	-1.052201	-0.000000	0.000000	0.000000	0.000000	0.000000	0.000000	0.000000	0.000000	0.000000	0.000000
0.502000	-16.556973	582.128052	-3.343783	0.868757	0.000000	0.187790	0.000000	-1.060640	-0.000000	0.000000	0.000000	0.000000	0.000000	0.000000	0.000000	0.000000	0.000000	0.000000
0.503000	-17.699879	589.674500	-2.801694	0.869881	0.000000	0.188446	0.000000	-1.012417	-0.000000	0.000000	0.000000	0.000000	0.000000	0.000000	0.000000	0.000000	0.000000	0.000000
0.504000	-17.579571	588.513428	-4.006335	0.869042	0.000000	0.188090	0.000000	-1.033885	-0.000000	0.000000	0.000000	0.000000	0.000000	0.000000	0.000000	0.000000	0.000000	0.000000
0.505000	-18.241255	591.250122	-3.604789	0.867814	0.000000	0.187588	0.000000	-1.093427	-0.000000	0.000000	0.000000	0.000000	0.000000	0.000000	0.000000	0.000000	0.000000	0.000000
0.506000	-19.123497	596.557495	-4.287419	0.868142	0.000000	0.188145	0.000000	-1.036224	-0.000000	0.000000	0.000000	0.000000	0.000000	0.000000	0.000000	0.000000	0.000000	0.000000
0.507000	-19.263855	595.479431	-4.327574	0.868826	0.000000	0.187836	0.000000	-1.133104	-0.000000	0.000000	0.000000	0.000000	0.000000	0.000000	0.000000	0.000000	0.000000	0.000000
0.508000	-20.527065	599.542969	-4.267342	0.868523	0.000000	0.187674	0.000000	-1.097707	-0.000000	0.000000	0.000000	0.000000	0.000000	0.000000	0.000000	0.000000	0.000000	0.000000
0.509000	-20.988237	598.962402	-5.010203	0.867487	0.000000	0.187587	0.000000	-1.012441	-0.000000	0.000000	0.000000	0.000000	0.000000	0.000000	0.000000	0.000000	0.000000	0.000000
0.510000	-21.690022	601.533203	-5.030281	0.867819	0.000000	0.187920	0.000000	-1.037437	-0.000000	0.000000	0.000000	0.000000	0.000000	0.000000	0.000000	0.000000	0.000000	0.000000
0.511000	-22.632416	607.255249	-5.431828	0.868623	0.000000	0.187233	0.000000	-1.132071	-0.000000	0.000000	0.000000	0.000000	0.000000	0.000000	0.000000	0.000000	0.000000	0.000000
0.512000	-23.394354	606.260132	-5.913685	0.867254	0.000000	0.187536	0.000000	-1.129218	-0.000000	0.000000	0.000000	0.000000	0.000000	0.000000	0.000000	0.000000	0.000000	0.000000
0.513000	-23.655016	608.250366	-5.773143	0.867832	0.000000	0.186867	0.000000	-1.202726	-0.000000	0.000000	0.000000	0.000000	0.000000	0.000000	0.000000	0.000000	0.000000	0.000000
0.514000	-24.978382	614.552979	-5.973917	0.867629	0.000000	0.186760	0.000000	-1.154150	-0.000000	0.000000	0.000000	0.000000	0.000000	0.000000	0.000000	0.000000	0.000000	0.000000
0.515000	-26.101234	616.874939	-6.736856	0.866644	0.000000	0.186848	0.000000	-1.173869	-0.000000	0.000000	0.000000	0.000000	0.000000	0.000000	0.000000	0.000000	0.000000	0.000000
0.516000	-26.622561	618.035889	-6.937630	0.866506	0.000000	0.187244	0.000000	-1.124033	-0.000000	0.000000	0.000000	0.000000	0.000000	0.000000	0.000000	0.000000	0.000000	0.000000
0.517000	-27.384497	622.348206	-6.837243	0.867320	0.000000	0.187276	0.000000	-1.094447	-0.000000	0.000000	0.000000	0.000000	0.000000	0.000000	0.000000	0.000000	0.000000	0.000000
0.518000	-29.409645	630.889771	-6.034148	0.868374	0.000000	0.187114	0.000000	-1.389613	-0.000000	0.000000	0.000000	0.000000	0.000000	0.000000	0.000000	0.000000	0.000000	0.000000
